<svg xmlns="http://www.w3.org/2000/svg" version="1.1" xmlns:xlink="http://www.w3.org/1999/xlink" xmlns:svgjs="http://svgjs.com/svgjs" width="1000" height="1000"><rect width="1000" height="1000" rx="200" ry="200" fill="#555555"></rect><g transform="matrix(1.6,0,0,1.6,100.32399597167966,100.74400329589844)"><svg xmlns="http://www.w3.org/2000/svg" version="1.1" xmlns:xlink="http://www.w3.org/1999/xlink" xmlns:svgjs="http://svgjs.com/svgjs" width="500" height="500"><svg xmlns="http://www.w3.org/2000/svg" xmlns:xlink="http://www.w3.org/1999/xlink" version="1.1" width="500" height="500" viewBox="0 0 500 500" xml:space="preserve">
<desc>Created with Fabric.js 4.6.0</desc>
<defs>
</defs>
<g transform="matrix(1 0 0 1 249.46 248.76)" id="hGD6BD-suvI3ymFz3s_GJ">
<path style="stroke: rgb(32,88,164); stroke-width: 0; stroke-dasharray: none; stroke-linecap: butt; stroke-dashoffset: 0; stroke-linejoin: miter; stroke-miterlimit: 4; fill: rgb(19,49,51); fill-rule: nonzero; opacity: 1;" vector-effect="non-scaling-stroke" transform=" translate(-250, -250)" d="M 0 0 L 500 0 L 500 500 L 0 500 z" stroke-linecap="round"></path>
</g>
<g transform="matrix(1.17 0 0 1.17 193.47 227.21)" id="fNOXc5hSyCZOeutgfC1XG">
<path style="stroke: none; stroke-width: 1; stroke-dasharray: none; stroke-linecap: butt; stroke-dashoffset: 0; stroke-linejoin: miter; stroke-miterlimit: 4; fill: rgb(180,145,103); fill-rule: nonzero; opacity: 1;" vector-effect="non-scaling-stroke" transform=" translate(-51.85, -80.58)" d="M 73.4 113.6 C 72.10000000000001 120.6 68.7 127 63.900000000000006 132.2 C 63.300000000000004 133.79999999999998 62.400000000000006 135.2 61.2 136.29999999999998 C 59 138.49999999999997 56.7 139.79999999999998 53.7 140.7 C 46.800000000000004 142.7 41.7 138.89999999999998 39.7 133.7 C 38.5 132.6 37.400000000000006 131.39999999999998 36.6 130 C 34.800000000000004 127 34.1 124 34.2 121.1 C 31.000000000000004 118 29.900000000000002 112.6 30.700000000000003 108.5 C 30.900000000000002 107.4 31.200000000000003 106.3 31.500000000000004 105.2 C 29.200000000000003 101 29.500000000000004 95.4 33.1 91.8 C 34.4 90.5 36 89.5 37.7 88.89999999999999 L 37.7 88.8 C 36.1 87.8 34.7 86.39999999999999 33.800000000000004 84.39999999999999 C 30.300000000000004 76.6 31.600000000000005 69.1 36.2 63.89999999999999 L 36.2 61.79999999999999 C 33.5 57.99999999999999 32.400000000000006 53.099999999999994 34.5 47.79999999999999 C 35 46.59999999999999 35.6 45.39999999999999 36.4 44.39999999999999 L 36.1 43.19999999999999 C 33.9 40.39999999999999 33 36.79999999999999 33.800000000000004 32.499999999999986 C 36.5 17 58 16.2 65.5 28 C 69.3 33.9 69.3 40.8 68 47.5 C 67.7 49.1 67.5 50.4 67.4 51.6 C 67.7 53.2 67.80000000000001 54.7 67.7 56.2 C 68 57.2 68.3 58.300000000000004 68.8 59.6 C 71.1 65.4 72.6 71.3 71.1 77.5 C 70.89999999999999 78.3 70.6 79.6 70.3 80.7 C 71.39999999999999 83.9 71.1 89.4 70.7 91.10000000000001 C 69.8 94.60000000000001 68.10000000000001 97.00000000000001 66 99.00000000000001 L 66 99.10000000000001 C 71 101.30000000000001 74.7 107.10000000000001 73.4 113.60000000000001 z" stroke-linecap="round"></path>
</g>
<g transform="matrix(1.17 0 0 1.17 193.32 257.42)" id="adJc_wsxwO6iKU6c3fYV8">
<path style="stroke: none; stroke-width: 1; stroke-dasharray: none; stroke-linecap: butt; stroke-dashoffset: 0; stroke-linejoin: miter; stroke-miterlimit: 4; fill: rgb(109,39,64); fill-rule: nonzero; opacity: 1;" vector-effect="non-scaling-stroke" transform=" translate(-51.73, -106.29)" d="M 66.6 89.3 C 64.89999999999999 90.3 62.99999999999999 91 60.99999999999999 91.1 C 60.599999999999994 91.1 60.199999999999996 90.89999999999999 59.89999999999999 90.6 C 58.39999999999999 92.6 56.79999999999999 94.5 54.99999999999999 96.3 L 54.39999999999999 96.6 C 53.89999999999999 104.19999999999999 53.49999999999999 111.8 53.39999999999999 119.39999999999999 C 56.69999999999999 116.39999999999999 60.19999999999999 113.49999999999999 63.79999999999999 110.69999999999999 C 64.39999999999999 110.29999999999998 65.19999999999999 110.39999999999999 65.6 110.89999999999999 C 66 111.49999999999999 65.89999999999999 112.3 65.39999999999999 112.69999999999999 C 61.29999999999999 115.89999999999999 57.29999999999999 119.29999999999998 53.39999999999999 122.79999999999998 C 53.19999999999999 137.89999999999998 53.599999999999994 152.89999999999998 53.99999999999999 167.59999999999997 C 54.099999999999994 169.79999999999995 54.099999999999994 171.39999999999998 54.199999999999996 173.09999999999997 C 54.3 174.69999999999996 54.3 176.39999999999998 54.4 178.59999999999997 C 54.4 179.29999999999995 53.9 179.89999999999998 53.1 179.89999999999998 C 52.4 179.89999999999998 51.800000000000004 179.29999999999998 51.800000000000004 178.59999999999997 C 51.7 176.79999999999995 51.7 174.99999999999997 51.6 173.09999999999997 C 51.5 171.29999999999995 51.5 169.39999999999998 51.4 167.59999999999997 C 51 152.89999999999998 50.6 137.99999999999997 50.8 122.99999999999997 C 50.599999999999994 122.59999999999997 50.599999999999994 122.09999999999997 50.8 121.69999999999997 L 50.8 120 C 50.699999999999996 119.8 50.599999999999994 119.6 50.599999999999994 119.4 L 50.099999999999994 118.9 L 49.599999999999994 118.4 C 48.3 117 46.99999999999999 115.5 45.8 114.10000000000001 C 45.599999999999994 114.2 45.5 114.2 45.3 114.30000000000001 L 38.9 114.80000000000001 C 38.199999999999996 114.9 37.6 114.30000000000001 37.5 113.60000000000001 C 37.4 112.9 38 112.30000000000001 38.7 112.2 L 43.900000000000006 111.8 L 40 107 C 39.6 106.4 39.7 105.6 40.2 105.2 C 40.800000000000004 104.8 41.6 104.9 42 105.4 C 44.8 109.10000000000001 47.8 112.60000000000001 50.9 116 C 51.1 107.3 51.5 98.6 52.3 90 L 52.5 88.2 C 52.6 86.9 52.7 85.7 52.8 84.4 L 52.5 84.4 C 52.3 84.4 52 84.30000000000001 51.8 84.2 C 51.4 83.9 50.8 83.60000000000001 50.3 83.3 C 49 82.6 47.8 81.8 46.599999999999994 81.1 C 44.39999999999999 82.19999999999999 41.99999999999999 82.8 39.49999999999999 82.8 L 39.29999999999999 82.8 C 38.59999999999999 82.8 37.99999999999999 82.2 37.99999999999999 81.5 C 37.99999999999999 80.8 38.599999999999994 80.2 39.29999999999999 80.2 L 39.39999999999999 80.2 C 40.99999999999999 80.2 42.49999999999999 79.9 43.99999999999999 79.3 C 41.39999999999999 77.39999999999999 38.599999999999994 75.2 36.49999999999999 72.39999999999999 C 36.099999999999994 71.8 36.199999999999996 70.99999999999999 36.699999999999996 70.6 C 37.3 70.19999999999999 38.099999999999994 70.3 38.49999999999999 70.8 C 42.099999999999994 75.5 47.69999999999999 78.8 51.39999999999999 81 C 51.89999999999999 81.3 52.29999999999999 81.5 52.69999999999999 81.8 C 52.999999999999986 76.5 52.999999999999986 71.2 51.59999999999999 66.3 C 51.29999999999999 65.2 50.899999999999984 64.2 50.59999999999999 63.099999999999994 C 50.19999999999999 61.89999999999999 49.69999999999999 60.599999999999994 49.399999999999984 59.3 L 49.19999999999998 59.3 C 48.899999999999984 59.3 48.59999999999998 59.199999999999996 48.29999999999998 58.9 C 46.399999999999984 57.1 44.19999999999998 55.6 41.69999999999998 54.699999999999996 C 40.99999999999998 54.4 40.69999999999998 53.699999999999996 40.99999999999998 52.99999999999999 C 41.299999999999976 52.29999999999999 41.99999999999998 51.99999999999999 42.69999999999998 52.29999999999999 C 44.899999999999984 53.19999999999999 46.899999999999984 54.39999999999999 48.69999999999998 55.89999999999999 C 48.59999999999998 54.49999999999999 48.49999999999998 53.099999999999994 48.49999999999998 51.79999999999999 C 47.49999999999998 47.79999999999999 44.69999999999998 42.999999999999986 42.49999999999998 39.999999999999986 L 42.19999999999998 39.59999999999999 C 41.399999999999984 38.499999999999986 40.399999999999984 37.19999999999999 40.09999999999998 35.69999999999999 C 39.99999999999998 34.999999999999986 40.39999999999998 34.29999999999999 41.09999999999998 34.19999999999999 C 41.79999999999998 34.09999999999999 42.49999999999998 34.499999999999986 42.59999999999998 35.19999999999999 C 42.79999999999998 36.19999999999999 43.49999999999998 37.09999999999999 44.19999999999998 38.09999999999999 L 44.49999999999998 38.499999999999986 C 46.09999999999998 40.69999999999999 47.49999999999998 42.999999999999986 48.799999999999976 45.399999999999984 L 49.39999999999998 33.899999999999984 C 49.39999999999998 33.19999999999998 49.99999999999998 32.59999999999999 50.699999999999974 32.69999999999998 C 51.39999999999998 32.69999999999998 51.99999999999997 33.29999999999998 51.89999999999998 34.09999999999998 L 51.2 48 C 51.1 49.2 51.1 50.3 51.1 51.5 L 51.1 52.4 C 52.6 48.8 54.4 45.3 56.5 42 C 56.9 41.4 57.7 41.2 58.3 41.6 C 58.9 42 59.099999999999994 42.800000000000004 58.699999999999996 43.4 C 55.9 47.699999999999996 53.699999999999996 52.4 52.099999999999994 57.4 C 51.99999999999999 57.6 51.89999999999999 57.8 51.699999999999996 58 C 51.99999999999999 59.5 52.49999999999999 60.9 53.099999999999994 62.4 C 53.49999999999999 63.5 53.89999999999999 64.6 54.199999999999996 65.7 C 54.4 66.4 54.49999999999999 67 54.699999999999996 67.7 C 56.99999999999999 65.5 59.4 63.5 62.099999999999994 61.800000000000004 C 62.699999999999996 61.400000000000006 63.49999999999999 61.6 63.89999999999999 62.2 C 64.3 62.800000000000004 64.1 63.6 63.49999999999999 64 C 60.49999999999999 65.9 57.79999999999999 68.2 55.3 70.8 C 56.099999999999994 76.7 55.5 82.7 55 88.5 L 54.8 90.3 C 54.699999999999996 91.1 54.699999999999996 92 54.599999999999994 92.8 C 59.199999999999996 87.89999999999999 62.599999999999994 81.7 64.3 75.3 C 64.5 74.6 65.2 74.2 65.89999999999999 74.39999999999999 C 66.6 74.6 66.99999999999999 75.3 66.8 75.99999999999999 C 65.7 80.39999999999999 63.8 84.59999999999998 61.3 88.49999999999999 C 62.699999999999996 88.29999999999998 64 87.79999999999998 65.2 87.09999999999998 C 65.8 86.69999999999997 66.60000000000001 86.89999999999998 67 87.49999999999999 C 67.4 88.09999999999998 67.2 88.89999999999999 66.6 89.29999999999998 z" stroke-linecap="round"></path>
</g>
<g transform="matrix(1.17 0 0 1.17 285.49 230.26)" id="7upqZdSqRBUEDgb-EdnZQ">
<path style="stroke: none; stroke-width: 1; stroke-dasharray: none; stroke-linecap: butt; stroke-dashoffset: 0; stroke-linejoin: miter; stroke-miterlimit: 4; fill: rgb(180,145,103); fill-rule: nonzero; opacity: 1;" vector-effect="non-scaling-stroke" transform=" translate(-130.19, -83.15)" d="M 164.9 106.2 C 159 129.1 149 151.5 131.9 145.4 C 129.3 144.5 127 142.9 125 140.70000000000002 C 117.9 140.70000000000002 110.5 138.70000000000002 104.5 133.50000000000003 C 95 125.30000000000003 92.5 110.20000000000003 91.2 93.80000000000003 C 89.9 78.10000000000002 89.7 60.00000000000003 94.10000000000001 45.700000000000024 C 98.7 30.800000000000026 109.2 23.900000000000023 118.5 20.900000000000023 C 123.8 19.200000000000024 128.8 20.800000000000022 132.7 25.300000000000026 C 134.2 23.700000000000024 135.79999999999998 22.400000000000027 137.5 21.400000000000027 C 145.3 17.200000000000028 153.2 22.100000000000026 157.9 31.50000000000003 C 160.4 34.90000000000003 162.3 39.50000000000003 163.4 45.70000000000003 C 164 48.900000000000034 164.3 52.20000000000003 164.20000000000002 55.60000000000003 C 165.00000000000003 56.80000000000003 165.70000000000002 58.10000000000003 166.4 59.60000000000003 C 173.3 74.70000000000003 168.8 91.00000000000003 164.9 106.20000000000003 z" stroke-linecap="round"></path>
</g>
<g transform="matrix(1.17 0 0 1.17 282.45 260.47)" id="khyWz_7Z1QHK22AbBs-K4">
<path style="stroke: none; stroke-width: 1; stroke-dasharray: none; stroke-linecap: butt; stroke-dashoffset: 0; stroke-linejoin: miter; stroke-miterlimit: 4; fill: rgb(109,39,64); fill-rule: nonzero; opacity: 1;" vector-effect="non-scaling-stroke" transform=" translate(-127.57, -108.87)" d="M 157.7 86.9 C 156.2 91.9 150.6 98.7 146.89999999999998 103.2 C 148.2 103.60000000000001 149.7 103.5 150.99999999999997 102.9 C 151.59999999999997 102.60000000000001 152.39999999999998 102.80000000000001 152.69999999999996 103.4 C 152.99999999999997 104 152.79999999999995 104.80000000000001 152.19999999999996 105.10000000000001 C 151.09999999999997 105.7 149.79999999999995 106.00000000000001 148.49999999999997 106.00000000000001 C 147.29999999999998 106.00000000000001 146.09999999999997 105.70000000000002 144.99999999999997 105.20000000000002 L 140.19999999999996 110.10000000000002 C 137.89999999999995 112.50000000000003 135.69999999999996 116.60000000000002 132.99999999999997 121.90000000000002 L 132.29999999999998 123.20000000000002 C 133.39999999999998 141.50000000000003 133.7 159.70000000000002 133.1 178 C 133.1 178.7 132.5 179.2 131.79999999999998 179.2 C 131.1 179.2 130.49999999999997 178.6 130.6 177.89999999999998 C 131.2 157.39999999999998 130.79999999999998 136.89999999999998 129.29999999999998 116.39999999999998 C 129.2 116.49999999999997 129.1 116.59999999999998 128.89999999999998 116.59999999999998 C 126.29999999999998 117.49999999999999 123.49999999999997 117.99999999999999 120.79999999999998 117.99999999999999 C 118.69999999999999 117.99999999999999 116.69999999999999 117.69999999999999 114.69999999999999 117.19999999999999 C 113.99999999999999 116.99999999999999 113.6 116.29999999999998 113.79999999999998 115.6 C 113.99999999999999 114.89999999999999 114.69999999999999 114.5 115.39999999999998 114.69999999999999 C 119.59999999999998 115.79999999999998 124.09999999999998 115.6 128.09999999999997 114.19999999999999 C 128.19999999999996 114.19999999999999 128.39999999999998 114.1 128.49999999999997 114.1 C 128.39999999999998 113.89999999999999 128.29999999999998 113.69999999999999 128.29999999999998 113.39999999999999 C 128.29999999999998 111.69999999999999 127.99999999999999 109.89999999999999 127.39999999999998 108.3 C 126.69999999999997 106.89999999999999 125.99999999999997 105.39999999999999 125.29999999999998 103.89999999999999 L 125.19999999999999 103.89999999999999 C 122.89999999999999 103.89999999999999 118.69999999999999 102.8 111.99999999999999 100.49999999999999 L 111.69999999999999 100.39999999999999 C 110.99999999999999 100.19999999999999 110.69999999999999 99.39999999999999 110.89999999999999 98.8 C 111.1 98.1 111.89999999999999 97.8 112.49999999999999 98 L 112.79999999999998 98.1 C 118.89999999999998 100.19999999999999 122.09999999999998 101 123.89999999999998 101.3 C 118.89999999999998 91.3 113.59999999999998 81.19999999999999 107.19999999999997 72.1 C 105.59999999999998 69.5 103.99999999999997 66.8 102.39999999999998 64.1 C 100.79999999999998 61.49999999999999 99.19999999999997 58.8 97.59999999999998 56.199999999999996 C 97.19999999999997 55.599999999999994 97.39999999999998 54.8 97.99999999999999 54.4 C 98.59999999999998 54 99.39999999999999 54.199999999999996 99.79999999999998 54.8 C 101.39999999999998 57.4 102.99999999999999 60.099999999999994 104.59999999999998 62.699999999999996 C 105.49999999999999 64.3 106.49999999999999 65.8 107.39999999999998 67.39999999999999 C 107.59999999999998 66.69999999999999 107.79999999999998 65.89999999999999 107.89999999999998 65.1 C 108.29999999999998 63.39999999999999 108.69999999999997 61.699999999999996 108.99999999999997 60.599999999999994 C 109.19999999999997 59.89999999999999 109.89999999999998 59.49999999999999 110.59999999999997 59.8 C 111.19999999999996 60 111.59999999999997 60.699999999999996 111.49999999999997 61.3 C 111.19999999999997 62.3 110.79999999999997 64 110.39999999999998 65.7 C 109.99999999999997 67.4 109.59999999999998 69.10000000000001 109.29999999999998 70.2 C 109.29999999999998 70.3 109.19999999999999 70.3 109.19999999999999 70.4 L 109.29999999999998 70.60000000000001 C 116.79999999999998 81.2 122.69999999999999 92.9 128.29999999999998 104.30000000000001 C 128.2 102.70000000000002 127.99999999999999 101.10000000000001 127.89999999999998 99.50000000000001 L 127.89999999999998 99.20000000000002 C 127.49999999999997 95.40000000000002 127.09999999999998 91.50000000000001 127.69999999999997 87.60000000000002 C 128.49999999999997 82.60000000000002 130.99999999999997 77.90000000000002 133.29999999999998 73.90000000000002 L 133.49999999999997 73.50000000000001 C 133.29999999999998 73.30000000000001 133.09999999999997 73.10000000000001 132.99999999999997 72.80000000000001 C 131.89999999999998 69.00000000000001 129.09999999999997 66.00000000000001 126.19999999999997 62.80000000000001 C 125.49999999999997 62.10000000000001 124.89999999999998 61.30000000000001 124.19999999999997 60.60000000000001 C 118.99999999999997 54.60000000000001 114.99999999999997 47.70000000000001 112.29999999999997 40.20000000000001 C 112.09999999999997 39.50000000000001 112.39999999999996 38.80000000000001 113.09999999999997 38.60000000000001 C 113.79999999999997 38.400000000000006 114.49999999999997 38.70000000000001 114.69999999999996 39.400000000000006 C 116.39999999999996 44.400000000000006 118.89999999999996 49.2 121.89999999999996 53.60000000000001 C 123.79999999999997 49.70000000000001 124.99999999999996 45.50000000000001 125.19999999999996 41.20000000000001 C 125.19999999999996 40.50000000000001 125.89999999999996 40.00000000000001 126.59999999999997 40.00000000000001 C 127.29999999999997 40.00000000000001 127.79999999999997 40.70000000000001 127.79999999999997 41.400000000000006 C 127.49999999999997 46.300000000000004 126.19999999999997 51.00000000000001 123.89999999999996 55.300000000000004 C 123.79999999999997 55.50000000000001 123.59999999999997 55.7 123.39999999999996 55.800000000000004 C 124.19999999999996 56.900000000000006 125.09999999999997 58.00000000000001 125.99999999999996 59.00000000000001 C 126.59999999999995 59.70000000000001 127.29999999999995 60.400000000000006 127.89999999999996 61.10000000000001 C 130.59999999999997 64.00000000000001 133.29999999999995 67.00000000000001 134.79999999999995 70.80000000000001 L 142.49999999999994 56.70000000000001 C 142.59999999999994 56.50000000000001 142.79999999999995 56.30000000000001 142.99999999999994 56.20000000000001 C 144.69999999999993 53.30000000000001 145.99999999999994 50.20000000000001 146.79999999999995 46.900000000000006 C 146.99999999999994 46.2 147.69999999999996 45.800000000000004 148.29999999999995 45.900000000000006 C 148.99999999999994 46.10000000000001 149.39999999999995 46.7 149.29999999999995 47.400000000000006 C 148.39999999999995 51.60000000000001 146.69999999999996 55.50000000000001 144.29999999999995 59.00000000000001 L 144.09999999999997 59.20000000000001 L 143.19999999999996 60.80000000000001 C 145.69999999999996 60.90000000000001 148.19999999999996 60.40000000000001 150.49999999999997 59.40000000000001 C 151.19999999999996 59.100000000000016 151.89999999999998 59.40000000000001 152.19999999999996 60.100000000000016 C 152.49999999999997 60.80000000000002 152.19999999999996 61.500000000000014 151.49999999999997 61.80000000000002 C 148.59999999999997 63.00000000000002 145.49999999999997 63.600000000000016 142.29999999999998 63.40000000000002 C 142.1 63.40000000000002 141.89999999999998 63.30000000000002 141.79999999999998 63.30000000000002 L 135.29999999999998 75.20000000000002 C 133.1 79.30000000000001 130.79999999999998 83.50000000000001 129.99999999999997 88.10000000000002 C 129.39999999999998 91.60000000000002 129.79999999999998 95.40000000000002 130.19999999999996 99.00000000000003 L 130.19999999999996 99.30000000000003 C 130.79999999999995 105.50000000000003 131.39999999999995 111.80000000000003 131.79999999999995 118.10000000000002 C 134.09999999999997 113.80000000000003 135.99999999999994 110.40000000000002 138.09999999999997 108.20000000000002 L 142.89999999999998 103.30000000000001 C 142.79999999999998 103.20000000000002 142.79999999999998 103.00000000000001 142.79999999999998 102.9 C 141.79999999999998 95.80000000000001 145.1 84.5 147.1 78.4 C 147.29999999999998 77.7 148.1 77.4 148.7 77.60000000000001 C 149.39999999999998 77.80000000000001 149.7 78.50000000000001 149.5 79.2 C 147.7 84.60000000000001 144.9 94.10000000000001 145.2 100.7 C 148.7 96.4 153.7 90.2 154.89999999999998 85.9 C 155.09999999999997 85.2 155.79999999999998 84.80000000000001 156.49999999999997 85 C 157.49999999999997 85.5 157.89999999999998 86.2 157.69999999999996 86.9 z" stroke-linecap="round"></path>
</g>
<g transform="matrix(1.17 0 0 1.17 237.23 254.56)" id="qxEw9HQOUTEqLOtEf-Up6">
<path style="stroke: none; stroke-width: 1; stroke-dasharray: none; stroke-linecap: butt; stroke-dashoffset: 0; stroke-linejoin: miter; stroke-miterlimit: 4; fill: rgb(113,102,59); fill-rule: nonzero; opacity: 1;" vector-effect="non-scaling-stroke" transform=" translate(-89.07, -103.84)" d="M 123.8 119.1 C 117.89999999999999 134.29999999999998 107.89999999999999 149.2 90.8 145.1 C 88.3 144.5 86 143.5 83.89999999999999 142 C 76.8 142 69.39999999999999 140.7 63.39999999999999 137.2 C 53.89999999999999 131.7 51.39999999999999 121.79999999999998 50.099999999999994 110.89999999999999 C 48.8 100.49999999999999 48.49999999999999 88.5 52.99999999999999 79 C 57.599999999999994 69.1 68.1 64.5 77.39999999999999 62.6 C 82.69999999999999 61.5 87.69999999999999 62.5 91.6 65.5 C 93.1 64.4 94.69999999999999 63.6 96.39999999999999 62.9 C 104.19999999999999 60.1 112.1 63.4 116.79999999999998 69.6 C 119.29999999999998 71.8 121.19999999999999 74.89999999999999 122.29999999999998 79 C 122.89999999999998 81.1 123.19999999999999 83.4 123.09999999999998 85.6 C 123.89999999999998 86.39999999999999 124.69999999999997 87.3 125.29999999999998 88.19999999999999 C 132.2 98.19999999999999 127.69999999999999 108.99999999999999 123.79999999999998 119.1 z" stroke-linecap="round"></path>
</g>
<g transform="matrix(1.17 0 0 1.17 238.73 282.17)" id="f-7VAdS6xh-FOzjAscxxg">
<path style="stroke: none; stroke-width: 1; stroke-dasharray: none; stroke-linecap: butt; stroke-dashoffset: 0; stroke-linejoin: miter; stroke-miterlimit: 4; fill: rgb(109,39,64); fill-rule: nonzero; opacity: 1;" vector-effect="non-scaling-stroke" transform=" translate(-90.37, -127.35)" d="M 114.1 125 C 111.39999999999999 126.4 108.39999999999999 127.2 105.39999999999999 127.5 C 105.1 127.5 104.89999999999999 127.5 104.6 127.3 C 101.6 131.5 98.19999999999999 134.9 93.5 136.4 C 93.4 136.4 93.2 136.5 93.1 136.5 C 92.89999999999999 136.5 92.8 136.5 92.69999999999999 136.4 C 92.39999999999999 149.5 92.89999999999999 162.9 93.99999999999999 178.60000000000002 C 94.09999999999998 179.3 93.49999999999999 179.90000000000003 92.79999999999998 180.00000000000003 L 92.69999999999999 180.00000000000003 C 91.99999999999999 180.00000000000003 91.49999999999999 179.50000000000003 91.39999999999999 178.80000000000004 C 89.99999999999999 160.20000000000005 89.6 145.10000000000002 90.19999999999999 129.60000000000002 L 90.19999999999999 129.40000000000003 C 89.79999999999998 129.30000000000004 89.39999999999999 129.10000000000002 89.19999999999999 128.80000000000004 C 87.89999999999999 126.50000000000004 84.29999999999998 125.70000000000005 80.89999999999999 125.00000000000004 C 80.1 124.80000000000004 79.39999999999999 124.70000000000005 78.6 124.50000000000004 C 76.89999999999999 125.40000000000005 75.1 125.80000000000004 73.19999999999999 125.80000000000004 C 70.79999999999998 125.80000000000004 68.39999999999999 125.10000000000004 66.49999999999999 123.70000000000005 C 65.89999999999999 123.30000000000004 65.79999999999998 122.50000000000004 66.19999999999999 121.90000000000005 C 66.6 121.30000000000005 67.39999999999999 121.20000000000005 67.99999999999999 121.60000000000005 C 69.89999999999999 122.90000000000005 72.39999999999999 123.40000000000005 74.79999999999998 123.10000000000005 C 70.99999999999999 121.00000000000006 68.59999999999998 116.90000000000005 66.59999999999998 112.60000000000005 C 66.29999999999998 112.00000000000006 66.59999999999998 111.20000000000005 67.19999999999997 110.90000000000005 C 67.79999999999997 110.60000000000005 68.59999999999998 110.90000000000005 68.89999999999998 111.50000000000004 C 70.79999999999998 115.50000000000004 73.09999999999998 119.90000000000005 77.19999999999997 121.40000000000005 C 78.39999999999998 121.80000000000005 79.89999999999998 122.20000000000005 81.39999999999998 122.50000000000004 C 84.59999999999998 123.20000000000005 88.09999999999998 124.00000000000004 90.19999999999997 126.10000000000004 C 90.19999999999997 122.50000000000004 89.89999999999998 119.10000000000004 88.49999999999997 116.10000000000004 C 87.29999999999997 113.50000000000004 85.49999999999997 111.40000000000003 83.49999999999997 109.10000000000004 C 81.89999999999998 107.20000000000003 80.19999999999997 105.30000000000004 78.89999999999998 103.10000000000004 C 77.69999999999997 101.00000000000004 76.79999999999998 98.70000000000003 76.29999999999998 96.40000000000003 C 75.99999999999999 96.40000000000003 75.69999999999999 96.20000000000003 75.49999999999999 96.00000000000003 L 69.69999999999999 89.90000000000003 C 69.19999999999999 89.40000000000003 69.19999999999999 88.60000000000004 69.69999999999999 88.10000000000004 C 70.19999999999999 87.60000000000004 70.99999999999999 87.60000000000004 71.49999999999999 88.20000000000003 L 75.49999999999999 92.40000000000003 C 74.99999999999999 88.70000000000003 75.09999999999998 85.00000000000003 75.09999999999998 81.80000000000004 C 75.09999999999998 81.10000000000004 75.69999999999997 80.50000000000004 76.39999999999998 80.50000000000004 C 77.09999999999998 80.50000000000004 77.69999999999997 81.10000000000004 77.69999999999997 81.80000000000004 C 77.59999999999998 88.40000000000003 77.59999999999998 95.90000000000003 81.09999999999998 101.90000000000003 C 82.29999999999998 103.90000000000003 83.79999999999998 105.70000000000003 85.39999999999998 107.50000000000003 C 86.89999999999998 109.30000000000003 88.49999999999997 111.10000000000002 89.69999999999997 113.10000000000002 C 90.79999999999997 108.80000000000003 92.89999999999998 104.20000000000002 95.49999999999997 100.60000000000002 C 95.29999999999997 100.50000000000003 95.19999999999997 100.30000000000003 95.09999999999997 100.20000000000002 C 93.99999999999997 97.70000000000002 93.59999999999997 95.10000000000002 93.59999999999997 92.40000000000002 C 93.39999999999996 92.30000000000003 93.19999999999996 92.20000000000002 93.09999999999997 92.10000000000002 L 87.29999999999997 85.50000000000003 C 86.79999999999997 85.00000000000003 86.89999999999996 84.20000000000003 87.39999999999996 83.70000000000003 C 87.89999999999996 83.20000000000003 88.79999999999997 83.30000000000003 89.19999999999996 83.80000000000003 L 93.59999999999997 88.80000000000003 L 93.59999999999997 87.70000000000003 C 93.69999999999996 83.80000000000003 93.49999999999997 79.90000000000003 92.99999999999997 76.10000000000004 C 92.99999999999997 75.40000000000003 93.49999999999997 74.80000000000004 94.19999999999997 74.70000000000003 C 94.89999999999998 74.70000000000003 95.49999999999997 75.10000000000004 95.59999999999998 75.80000000000003 C 95.99999999999999 79.80000000000003 96.19999999999997 83.80000000000003 96.19999999999997 87.80000000000003 L 96.19999999999997 89 C 96.09999999999998 92.2 96.09999999999998 95.6 97.19999999999997 98.5 C 97.39999999999998 98.3 97.49999999999997 98.1 97.69999999999997 97.9 C 98.39999999999998 97.10000000000001 99.09999999999998 96.4 99.79999999999997 95.7 C 102.99999999999997 92.4 106.29999999999997 89 105.69999999999997 85.10000000000001 C 105.59999999999998 84.4 106.09999999999998 83.7 106.79999999999997 83.60000000000001 C 107.49999999999997 83.50000000000001 108.19999999999997 84.00000000000001 108.29999999999997 84.7 C 109.09999999999997 89.9 105.19999999999997 93.9 101.69999999999997 97.5 L 100.99999999999997 98.3 C 104.09999999999997 97.3 107.09999999999997 95.7 109.59999999999997 93.6 C 110.09999999999997 93.1 110.99999999999997 93.19999999999999 111.39999999999996 93.8 C 111.89999999999996 94.3 111.79999999999997 95.1 111.29999999999997 95.6 C 108.29999999999997 98.1 104.79999999999997 100 100.99999999999997 101 C 100.29999999999997 101.2 99.59999999999997 100.8 99.39999999999998 100.1 L 99.39999999999998 100 C 95.59999999999998 104.4 92.29999999999998 111.7 91.69999999999997 117.3 C 92.99999999999997 121.3 92.99999999999997 125.7 92.79999999999997 130.2 C 92.69999999999997 131.6 92.69999999999997 133.1 92.69999999999997 134.5 C 98.09999999999998 132.8 101.69999999999997 127.7 105.29999999999997 122.2 L 110.69999999999997 113.8 C 111.09999999999998 113.2 111.89999999999998 113 112.49999999999997 113.39999999999999 C 113.09999999999997 113.8 113.29999999999997 114.6 112.89999999999998 115.19999999999999 L 107.49999999999997 123.6 C 107.09999999999997 124.19999999999999 106.79999999999997 124.69999999999999 106.39999999999998 125.3 C 108.69999999999997 125 110.89999999999998 124.3 112.89999999999998 123.3 C 113.49999999999997 123 114.29999999999998 123.2 114.59999999999998 123.89999999999999 C 114.99999999999999 123.89999999999999 114.69999999999997 124.6 114.09999999999998 124.99999999999999 z" stroke-linecap="round"></path>
</g>
</svg></svg></g></svg>