<?xml version="1.0" encoding="utf-8"?>
<svg version="1.1" width="500" height="500" viewBox="-93.714 25.704 500 500" xmlns="http://www.w3.org/2000/svg">
  <desc>Created with Fabric.js 4.6.0</desc>
  <desc>Created with Fabric.js 4.6.0</desc>
  <g transform="matrix(0.28, 0, 0, 0.28, 160.154783, 278.921877)" id="3dwH_yiYdxncsU6RXc2p2">
    <path style="stroke: none; stroke-width: 1; stroke-dasharray: none; stroke-linecap: butt; stroke-dashoffset: 0; stroke-linejoin: miter; stroke-miterlimit: 4; fill: rgb(0,0,0); fill-rule: nonzero; opacity: 1;" vector-effect="non-scaling-stroke" transform=" translate(-320, -272)" d="M 464 64 C 490.5 64 512 85.49 512 112 C 512 127.1 504.9 141.3 492.8 150.4 L 478.9 160.8 C 412.3 167.2 356.5 210.8 332.6 270.6 L 275.2 313.6 C 263.8 322.1 248.2 322.1 236.8 313.6 L 19.2 150.4 C 7.113 141.3 0 127.1 0 112 C 0 85.49 21.49 64 48 64 L 464 64 Z M 294.4 339.2 L 320.8 319.4 C 320.3 324.9 320 330.4 320 336 C 320 378.5 335.1 417.6 360.2 448 L 64 448 C 28.65 448 0 419.3 0 384 L 0 176 L 217.6 339.2 C 240.4 356.3 271.6 356.3 294.4 339.2 Z M 640 336 C 640 415.5 575.5 480 496 480 C 416.5 480 352 415.5 352 336 C 352 256.5 416.5 192 496 192 C 575.5 192 640 256.5 640 336 Z M 394.065 392.984 L 451.237 435.247 C 528.256 484.759 642.838 434.327 582.264 395.387 C 576.064 389.087 601.223 302.575 596.255 402.524 C 591.287 502.473 596.87 353.915 603.17 360.115 L 607.232 400.343 C 613.432 406.643 587.58 304.057 593.78 297.757 C 639.299 173.844 417.566 261.366 417.566 261.366 C 423.866 255.166 407.205 228.075 419.388 215.714 C 431.571 203.353 400.265 386.684 394.065 392.984 Z" stroke-linecap="round"/>
  </g>
  <g transform="matrix(0.37, 0, 0, 0.37, 209.894788, 296.921877)" id="BvKZAClmKtSI9K_aRPkde">
    <path style="stroke: none; stroke-width: 1; stroke-dasharray: none; stroke-linecap: butt; stroke-dashoffset: 0; stroke-linejoin: miter; stroke-miterlimit: 4; fill: rgb(0,0,0); fill-rule: nonzero; opacity: 1;" vector-effect="non-scaling-stroke" transform=" translate(-110, -110)" d="M 110 0 C 49.249 0 0 49.247 0 110 C 0 170.753 49.249 220 110 220 C 170.751 220 220 170.753 220 110 C 220 49.247 170.75 0 110 0 Z M 158.786 107.985 C 158.786 135.589 136.329 158.046 108.725 158.046 C 81.121 158.046 58.664 135.589 58.664 107.985 C 58.664 80.381 81.121 57.924 108.725 57.924 C 119.862 57.924 130.413 61.509 139.237 68.292 L 127.614 83.411 C 122.153 79.213 115.621 76.994 108.725 76.994 C 91.637 76.994 77.735 90.896 77.735 107.984 C 77.735 125.072 91.637 138.974 108.725 138.974 C 122.488 138.974 134.184 129.956 138.215 117.519 L 108.725 117.519 L 108.725 98.449 L 158.786 98.449 L 158.786 107.985 Z" stroke-linecap="round"/>
  </g>
</svg>